<?xml version="1.0" encoding="iso-8859-1"?>
<!-- Generator: Adobe Illustrator 18.0.0, SVG Export Plug-In . SVG Version: 6.00 Build 0)  -->
<!DOCTYPE svg PUBLIC "-//W3C//DTD SVG 1.1//EN" "http://www.w3.org/Graphics/SVG/1.1/DTD/svg11.dtd">
<svg version="1.1" id="Capa_1" xmlns="http://www.w3.org/2000/svg" xmlns:xlink="http://www.w3.org/1999/xlink" x="0px" y="0px"
	 viewBox="0 0 60 60" style="enable-background:new 0 0 60 60;" xml:space="preserve">
<g>
	<path d="M0,8l0,33c0,3.252,2.748,6,6,6h8v10c0,0.413,0.254,0.784,0.639,0.933C14.757,57.979,14.879,58,15,58
		c0.276,0,0.546-0.114,0.74-0.327L25.442,47H54c3.252,0,6-2.748,6-6V8c0-3.252-2.748-6-6-6H6C2.748,2,0,4.748,0,8z M40,24
		c0-2.206,1.794-4,4-4s4,1.794,4,4s-1.794,4-4,4S40,26.206,40,24z M26,24c0-2.206,1.794-4,4-4s4,1.794,4,4s-1.794,4-4,4
		S26,26.206,26,24z M12,24c0-2.206,1.794-4,4-4s4,1.794,4,4s-1.794,4-4,4S12,26.206,12,24z"/>
</g>
<g>
</g>
<g>
</g>
<g>
</g>
<g>
</g>
<g>
</g>
<g>
</g>
<g>
</g>
<g>
</g>
<g>
</g>
<g>
</g>
<g>
</g>
<g>
</g>
<g>
</g>
<g>
</g>
<g>
</g>
</svg>
