<svg height="512pt" viewBox="0 -31 512 512" width="512pt" xmlns="http://www.w3.org/2000/svg"><path d="m451.707031 202.613281c.183594-2.535156.292969-5.074219.292969-7.613281 0-54.21875-41.308594-98.972656-94.105469-104.4375-13.316406-52.671875-60.507812-90.5625-115.894531-90.5625-43.160156 0-83.039062 23.238281-104.414062 60.023438-37.6875-1.058594-71.980469 27.160156-76.964844 65.378906-36.589844 12.652344-60.621094 46.652344-60.621094 84.597656 0 49.625 40.375 89.988281 90 89.988281h152.839844c-.550782 4.929688-.839844 9.941407-.839844 15.011719 0 74.4375 60.5625 135 135 135s135-60.5625 135-135c0-46.832031-23.976562-88.167969-60.292969-112.386719zm-361.707031 67.386719c-33.085938 0-60-26.914062-60-60 0-28.175781 20.257812-52.71875 48.167969-58.359375l12.453125-2.515625c-.476563-12.472656-.339844-12.734375-.613282-14.804688.382813-24.09375 21.289063-44.320312 45.992188-44.320312 3.96875 0 7.359375.808594 18.917969 2.746094l4.828125-10.40625c14.761718-31.796875 47.046875-52.339844 82.253906-52.339844 44.25 0 82.363281 33.21875 88.652344 77.269531l1.875 13.113281c12.984375-.277343 13.332031-.144531 15.238281-.378906 38.511719.386719 70.160156 29.945313 73.867187 67.589844-13.980468-4.914062-28.996093-7.59375-44.632812-7.59375-58.667969 0-108.703125 37.621094-127.277344 90zm287 150c-57.898438 0-105-47.101562-105-105s47.101562-105 105-105 105 47.101562 105 105-47.101562 105-105 105zm0 0"/><path d="m408.820312 261.96875-31.820312 31.816406-31.820312-31.816406-21.210938 21.210938 31.816406 31.820312-31.816406 31.820312 21.210938 21.210938 31.820312-31.816406 31.820312 31.816406 21.210938-21.210938-31.816406-31.820312 31.816406-31.820312zm0 0"/></svg>