<svg id="Bold" enable-background="new 0 0 24 24" height="512" viewBox="0 0 24 24" width="512" xmlns="http://www.w3.org/2000/svg"><path d="m1.75 15h7.5c.965 0 1.75-.785 1.75-1.75v-4c0-.965-.785-1.75-1.75-1.75h-7.5c-.965 0-1.75.785-1.75 1.75v4c0 .965.785 1.75 1.75 1.75z"/><path d="m1.75 24h7.5c.965 0 1.75-.785 1.75-1.75v-4c0-.965-.785-1.75-1.75-1.75h-7.5c-.965 0-1.75.785-1.75 1.75v4c0 .965.785 1.75 1.75 1.75z"/><path d="m22.25 0h-20.5c-.965 0-1.75.785-1.75 1.75v2.5c0 .965.785 1.75 1.75 1.75h20.5c.965 0 1.75-.785 1.75-1.75v-2.5c0-.965-.785-1.75-1.75-1.75z"/><path d="m23.25 7.5h-9.5c-.414 0-.75.336-.75.75s.336.75.75.75h9.5c.414 0 .75-.336.75-.75s-.336-.75-.75-.75z"/><path d="m23.25 10.5h-9.5c-.414 0-.75.336-.75.75s.336.75.75.75h9.5c.414 0 .75-.336.75-.75s-.336-.75-.75-.75z"/><path d="m23.25 13.5h-9.5c-.414 0-.75.336-.75.75s.336.75.75.75h9.5c.414 0 .75-.336.75-.75s-.336-.75-.75-.75z"/><path d="m23.25 16.5h-9.5c-.414 0-.75.336-.75.75s.336.75.75.75h9.5c.414 0 .75-.336.75-.75s-.336-.75-.75-.75z"/><path d="m23.25 19.5h-9.5c-.414 0-.75.336-.75.75s.336.75.75.75h9.5c.414 0 .75-.336.75-.75s-.336-.75-.75-.75z"/><path d="m23.25 22.5h-9.5c-.414 0-.75.336-.75.75s.336.75.75.75h9.5c.414 0 .75-.336.75-.75s-.336-.75-.75-.75z"/></svg>