<svg height="512pt" viewBox="0 0 512 512" width="512pt" xmlns="http://www.w3.org/2000/svg"><path d="m427 100c-8.285156 0-15-6.714844-15-15v-85h-337c-8.285156 0-15 6.714844-15 15v105h277c3.980469 0 7.792969 1.578125 10.605469 4.394531l100 100c2.816406 2.8125 4.394531 6.625 4.394531 10.605469v157h45c8.285156 0 15-6.714844 15-15v-277zm0 0"/><path d="m442 21.214844v48.785156h48.785156zm0 0"/><path d="m352 220h48.785156l-48.785156-48.785156zm0 0"/><path d="m288.78125 359.285156c-6.820312-6.824218-15.785156-10.234375-24.75-10.234375-3.976562 0-7.957031.675781-11.75 2.019531l15.285156 15.285157c5.859375 5.859375 5.859375 15.355469 0 21.214843-2.925781 2.925782-6.765625 4.394532-10.605468 4.394532-3.835938 0-7.675782-1.46875-10.605469-4.394532l-15.285157-15.285156c-4.375 12.332032-1.636718 26.644532 8.214844 36.496094l28.285156 28.285156c13.644532 13.648438 35.851563 13.648438 49.496094 0 13.648438-13.644531 13.648438-35.851562 0-49.496094zm0 0"/><path d="m337 250c-8.285156 0-15-6.714844-15-15v-85h-307c-8.285156 0-15 6.714844-15 15v332c0 8.285156 6.714844 15 15 15h392c8.285156 0 15-6.714844 15-15v-247zm1.277344 208.277344c-12.273438 12.277344-28.597656 19.039062-45.960938 19.039062-17.363281 0-33.683594-6.761718-45.960937-19.039062l-28.285157-28.28125c-21.691406-21.695313-24.800781-55.023438-9.355468-80.070313l-16.625-16.625c-10.15625 6.289063-21.878906 9.667969-34.121094 9.667969-17.363281 0-33.6875-6.761719-45.964844-19.039062l-28.28125-28.285157c-25.34375-25.34375-25.34375-66.578125 0-91.921875 12.273438-12.277344 28.597656-19.039062 45.960938-19.039062 17.363281 0 33.683594 6.761718 45.960937 19.039062l28.285157 28.28125c12.277343 12.277344 19.039062 28.601563 19.039062 45.964844 0 12.242188-3.378906 23.964844-9.667969 34.121094l16.625 16.625c25.050781-15.445313 58.378907-12.335938 80.070313 9.355468l28.28125 28.285157c12.277344 12.277343 19.039062 28.597656 19.039062 45.960937 0 17.363282-6.757812 33.6875-19.039062 45.960938zm0 0"/><path d="m154.433594 274.433594c5.855468-5.859375 15.351562-5.859375 21.210937 0l15.285157 15.285156c4.375-12.335938 1.640624-26.648438-8.214844-36.5l-28.28125-28.285156c-6.613282-6.609375-15.402344-10.25-24.75-10.25s-18.136719 3.640625-24.75 10.25c-13.644532 13.644531-13.644532 35.851562 0 49.5l28.285156 28.28125c6.609375 6.609375 15.398438 10.253906 24.75 10.253906 4.074219 0 8.039062-.695312 11.765625-2.019531l-15.300781-15.304688c-5.859375-5.859375-5.859375-15.355469 0-21.210937zm0 0"/></svg>